<svg xmlns="http://www.w3.org/2000/svg" viewBox="0 0 157.6 96.25"><defs><style>.cls-1{fill:#231f20;}</style></defs><g id="Layer_2" data-name="Layer 2"><g id="Layer_1-2" data-name="Layer 1"><path class="cls-1" d="M5,53.92A64,64,0,0,1,15.16,25.53C20.33,17.64,27.6,10,36.64,6.63,45,3.55,56,4.52,61.12,12.75c5.87,9.4-.41,20.44-5,28.92C50.7,51.53,45.51,61.85,44.49,73.21c-.46,5,0,10.31,2.32,14.87a17.79,17.79,0,0,0,4.84,5.79A11.24,11.24,0,0,0,59,96.25c4.73,0,8.72-2.21,12-5.45,3.84-3.75,7.3-8,10.83-12Q87.85,72,93.59,65.1c3.77-4.55,7.33-9.29,11.25-13.71,3.47-3.92,7.38-8,12.09-10.45,3.26-1.67,8.82-2.29,10.78,1.71,1.1,2.27.68,5.08,1.31,7.49A11.28,11.28,0,0,0,132.84,56c4.22,3.41,9.6,3.95,14.78,2.91a52.76,52.76,0,0,0,8.14-2.59,2.57,2.57,0,0,0,1.75-3.07,2.52,2.52,0,0,0-3.07-1.75c-4.83,1.83-10.28,4-15.44,2.31a8.21,8.21,0,0,1-4.5-3.4c-1.29-2.16-1-4.94-1.45-7.34-1-5.2-5.79-8.33-10.9-8.46-5.56-.14-10.43,3.34-14.43,6.83A100.26,100.26,0,0,0,96,54.31q-5.72,7.11-11.64,14.06T72.48,81.93c-2.74,3-5.58,6.94-9.46,8.55a10.25,10.25,0,0,1-6.3.57c-2-.58-3.83-2.59-4.93-4.33-2.54-4.07-2.73-9.09-2.28-13.73,1.07-11.17,6.81-21.23,12-30.91,5.14-9.5,10.22-21.24,4.08-31.53C60.2,1.43,48.89-1.53,39,.72S20.87,9.92,14.73,17.66A69.24,69.24,0,0,0,1.25,45.92a71.89,71.89,0,0,0-1.24,8,2.52,2.52,0,0,0,2.5,2.5A2.55,2.55,0,0,0,5,53.92Z"/></g></g></svg>