<svg xmlns="http://www.w3.org/2000/svg" viewBox="0 0 162.65 101.24"><defs><style>.cls-1{fill:#231f20;}</style></defs><g id="Layer_2" data-name="Layer 2"><g id="Layer_1-2" data-name="Layer 1"><path class="cls-1" d="M10,56.4c0-.34.07-.68.11-1s.14-1.23,0-.1c.07-.54.16-1.09.25-1.63.22-1.36.48-2.7.79-4a67.46,67.46,0,0,1,2.2-7.52c.19-.52.38-1,.58-1.54.12-.32.25-.64.38-1s.47-1.12.05-.14c.49-1.13,1-2.26,1.56-3.37a65.1,65.1,0,0,1,3.89-6.79c.68-1,1.38-2.05,2.12-3.05l.49-.66c.8-1.06-.42.5.1-.13s.95-1.17,1.44-1.75a56.83,56.83,0,0,1,5.11-5.3c.87-.79,1.77-1.54,2.69-2.28.62-.5-1,.68.08-.05l.63-.46c.53-.38,1.07-.74,1.62-1.1,1-.63,2-1.22,3-1.76.57-.29,1.16-.56,1.74-.84.3-.15.62-.48-.13,0a5.51,5.51,0,0,1,1.07-.41,29.38,29.38,0,0,1,3.31-1c.56-.14,1.13-.26,1.7-.36.17,0,1-.18.29-.06s.53,0,.69-.06A26.15,26.15,0,0,1,49.34,10a5.77,5.77,0,0,1,1.81.15c-.63-.32-.64-.11-.17,0s.74.13,1.11.22a10.68,10.68,0,0,1,3.25,1c-.91-.6-.31-.13,0,0l.84.42c.55.29,1.08.61,1.6,1l.62.43c1,.66-.54-.5,0,0s.84.73,1.24,1.12.75.83,1.14,1.24-.65-1,0,0c.21.31.43.62.63.94.3.49.58,1,.84,1.51,0,0,.55,1.28.28.59s.21.62.2.61c.18.53.32,1.07.45,1.61.07.34.12.68.19,1s0,.27,0-.31c0,.2,0,.41.06.61a32.6,32.6,0,0,1-.06,3.7c0,.82.23-1.2,0,.11l-.15.82c-.13.7-.29,1.38-.47,2.06a35.93,35.93,0,0,1-1.2,3.68c-.12.34-.27.68-.39,1-.26.72.31-.69,0,0s-.65,1.47-1,2.2c-1.16,2.43-2.45,4.8-3.74,7.16-5.61,10.28-10.86,21-11.93,32.8a29.45,29.45,0,0,0,2.66,16.13,19.72,19.72,0,0,0,5.48,6.49,13.76,13.76,0,0,0,8.91,2.93c5.4-.06,10-2.49,13.81-6.19s7.3-8,10.83-12q5.93-6.78,11.68-13.72c3.77-4.55,7.32-9.29,11.24-13.71a72.5,72.5,0,0,1,5.92-6c.49-.45,1-.88,1.51-1.31l.64-.53c1-.85-.52.35.15-.12a32.83,32.83,0,0,1,3.37-2.12s1.23-.61.53-.28.55-.2.56-.2c.52-.18,1.06-.29,1.59-.45,1.22-.36-.59,0,.07,0,.29,0,.58-.05.87-.05l.69,0c1.15,0-1.07-.26,0,0,.51.12,1,.28,1.51.41.67.19-1-.6-.09,0l.6.34s.54.29.56.37l-.48-.36.37.34.12.12c.36.4.31.32-.13-.25.2.07.44.7.54.86.19.33.05.55-.05-.09,0,.26.17.55.23.82,0,0,.25,1.37.13.6s.06.61.06.62a31.7,31.7,0,0,0,.69,4.95,13.58,13.58,0,0,0,4.46,7c4.92,4.05,11.11,4.78,17.21,3.55a52.15,52.15,0,0,0,8.15-2.59c2.44-.92,4.38-3.41,3.49-6.15-.77-2.38-3.53-4.48-6.15-3.49a50.46,50.46,0,0,1-8.37,2.63s-1.44.22-.7.13-.73,0-.7,0q-.91.06-1.83,0l-.88-.07c-.74,0,1.23.29.1,0-.58-.16-1.16-.27-1.73-.46-.09,0-1.14-.49-.4-.13s-.3-.17-.37-.2c-.41-.23-.8-.49-1.2-.73-.95-.6.53.53.05,0-.19-.21-.42-.39-.62-.6s-.35-.46-.46-.51q.59.78.27.33c-.1-.14-.19-.29-.28-.44s-.65-1-.21-.32-.09-.32-.13-.46c-.11-.37-.36-1.85-.22-.78-.23-1.73-.29-3.47-.63-5.18-1.23-6.29-7.16-10.14-13.31-10.3s-11.7,3.63-16.2,7.57A100.17,100.17,0,0,0,96.72,55Q91,62.13,85.08,69.09T73.22,82.65c-1.65,1.83-3.27,3.72-5,5.44-.35.33-.7.66-1.07,1l-.49.41c-.85.73.94-.61,0,0-.36.22-.7.47-1.07.68s-.47.25-.7.38c-1,.56.43-.08,0,0s-.94.34-1.42.46c-.22.06-.45.09-.67.15-1.11.29.84,0,.1,0-.58,0-1.14.08-1.71.07-.34,0-.68,0-1,0s-.28,0,.32.06a3.5,3.5,0,0,1-.56-.13l-.19-.05c-.52-.19-.48-.17.13.06a3.11,3.11,0,0,1-.68-.38l-.65-.44c.87.62.16.09,0-.1A15,15,0,0,1,57.2,89a7.34,7.34,0,0,1-.51-.6c.76,1-.09-.19-.23-.41-.31-.49-.57-1-.83-1.51-.43-.82,0,0,0,.15a4.86,4.86,0,0,1-.33-.9,10.28,10.28,0,0,1-.87-3.54c-.09,1.08.05.39,0,0s-.06-.64-.08-1c0-.58-.06-1.16-.06-1.75a34.91,34.91,0,0,1,.18-4c0-.37.08-.73.12-1.1.09-.86-.22,1.19,0-.2.12-.65.22-1.31.35-2,.28-1.38.61-2.73,1-4.08s.78-2.54,1.22-3.8c.25-.69.51-1.39.78-2.08l.33-.83c.11-.26.54-1.26.19-.45,2.25-5.21,5-10.17,7.68-15.15,5.59-10.34,10.72-22.92,4.08-34.06C64.27,1.66,51.84-1.7,40.84.79c-10.23,2.31-19,9.53-25.37,17.58A72,72,0,0,0,1.35,47.74,77.08,77.08,0,0,0,0,56.4c-.27,2.61,2.49,5.11,5,5,2.93-.13,4.71-2.2,5-5Z"/></g></g></svg>