<svg xmlns="http://www.w3.org/2000/svg" viewBox="0 0 167.61 106.26"><defs><style>.cls-1{fill:#231f20;}</style></defs><g id="Layer_2" data-name="Layer 2"><g id="Layer_1-2" data-name="Layer 1"><path class="cls-1" d="M15,58.91c.07-.68.15-1.36.23-2l-.26,2A67.83,67.83,0,0,1,19.63,41.8l-.75,1.79a68.87,68.87,0,0,1,4.73-9.15q1.41-2.28,3-4.43c.24-.34.5-.66.74-1-1.37,1.84-.45.59-.15.22.56-.69,1.14-1.38,1.73-2a57.21,57.21,0,0,1,7.12-6.8c.6-.49-1.58,1.18-.27.22l1.12-.79c.64-.44,1.3-.86,2-1.26a37.85,37.85,0,0,1,4.48-2.3L41.55,17a30.23,30.23,0,0,1,7.39-2.08l-2,.26a27.74,27.74,0,0,1,7.11,0l-2-.26a22.41,22.41,0,0,1,5.46,1.48l-1.79-.76a21.17,21.17,0,0,1,3,1.55l.62.41c.25.18,1.19.89.14.08s-.24-.18,0,0l.69.62c.36.35.71.7,1,1.07.15.18,1,1.19.13.11s-.18-.23,0,0A19.68,19.68,0,0,1,63.19,23l-.75-1.79a19,19,0,0,1,1.17,4.45l-.26-2a22.71,22.71,0,0,1,0,5.34l.27-2A36.71,36.71,0,0,1,61,36l.76-1.79c-2.06,4.88-4.77,9.43-7.22,14.11a114.25,114.25,0,0,0-7.08,15.87A55.42,55.42,0,0,0,44.34,81c-.11,5.5.95,11.46,4,16.12a23.13,23.13,0,0,0,7,7,16.11,16.11,0,0,0,9.84,2.14A23.17,23.17,0,0,0,79.86,99.1c3.62-3.6,6.92-7.56,10.28-11.39q5.7-6.51,11.23-13.15c4-4.85,7.83-9.93,12-14.64a72.51,72.51,0,0,1,6.25-6.27c.55-.48,1.1-.95,1.66-1.41s1.21-.57-.36.27a8.37,8.37,0,0,0,.85-.62,23.12,23.12,0,0,1,3.81-2.17l-1.79.76a15.8,15.8,0,0,1,3.56-1l-2,.27a12.26,12.26,0,0,1,2.84,0l-2-.26a11.75,11.75,0,0,1,2.68.7l-1.79-.75a9.32,9.32,0,0,1,1.22.62c1.55.94-1-1-.18-.16,1.24,1.35-.69-1.31-.09-.24a13.15,13.15,0,0,1,.67,1.29L128,49.08a12.27,12.27,0,0,1,.59,2.48l-.26-2c.5,4,.59,8,3,11.46a19.52,19.52,0,0,0,9.6,7.23c7,2.66,14.62.4,21.26-2.12a8.15,8.15,0,0,0,4.49-3.45,7.63,7.63,0,0,0,.75-5.78c-1.15-3.57-5.3-6.73-9.22-5.24a46,46,0,0,1-9.73,2.86l2-.27a18.24,18.24,0,0,1-4.61,0l2,.27a15.07,15.07,0,0,1-3.43-1l1.79.76a13.85,13.85,0,0,1-1.58-.81c-.25-.15-.48-.33-.73-.48-.64-.41,1.48,1.32.57.41-.29-.29-1.43-1.61-.57-.51s.17.19,0-.08-.32-.61-.47-.93l.76,1.8a11.38,11.38,0,0,1-.72-2.75l.27,2a65.09,65.09,0,0,0-.87-6.69,14.89,14.89,0,0,0-3.57-6.61,17,17,0,0,0-11.36-5.06c-8.07-.63-15.17,4.85-20.67,10.09C102,49.67,97.75,55.47,93.21,61q-7.15,8.71-14.62,17.2c-2.63,3-5.26,6-8,8.87a34.26,34.26,0,0,1-2.92,2.86l-.62.51c1.93-1.66.78-.6.23-.25a14.77,14.77,0,0,1-2,1l1.79-.76a13.59,13.59,0,0,1-3.24.91l2-.27a17,17,0,0,1-3.9,0l2,.27a7.36,7.36,0,0,1-1.85-.51l1.79.75a10.17,10.17,0,0,1-1-.55c-.63-.39-1-1.09.25.24-.55-.56-1.17-1-1.7-1.64l-.26-.3c-.49-.6-.34-.4.45.59A10,10,0,0,0,61,89,17.2,17.2,0,0,1,60,87l.76,1.8a21.17,21.17,0,0,1-1.4-5.17l.27,2a35.85,35.85,0,0,1,.12-9.37l-.26,2a60.09,60.09,0,0,1,4.32-14.85L63,65.16c4.27-10,10.87-19,14-29.48,1.69-5.63,2.18-12.06.19-17.7A26.42,26.42,0,0,0,66,4C56.17-1.9,44-.79,34,4.11c-9.32,4.6-16.85,12.78-22.47,21.37A74.72,74.72,0,0,0,0,58.91a7.5,7.5,0,0,0,12.8,5.3,8.51,8.51,0,0,0,2.2-5.3Z"/></g></g></svg>